# xmcd CD database file
#
# Track frame offsets:
#	182
#	10670
#	29735
#	51080
#	66390
#	81662
#	95977
#	112245
#	125795
#	137407
#	151950
#	166657
#	179135
#	192105
#	204165
#	219250
#	232910
#	247852
#	262587
#	287547
#	299002
#	318450
#	331010
#
# Disc length: 4587 seconds
#
# Revision: 6
# Processed by: cddbd v1.5.2PL0 Copyright (c) Steve Scherf et al.
# Submitted via: CDex 2.03
#
DISCID=5011e917
DTITLE=Various Artist - Respect, A Century Of Women in Music 1 - Broadway, Blues and Truth
DYEAR=1999
DGENRE=Blues
TTITLE0=Jones, Ada - By the Light of the Silvery Moon
TTITLE1=Tucker, Sophie - Some of These Days
TTITLE2=Gluck, Alma - Carry Me Back to Old Virginny
TTITLE3=Chandler, Anna-She's Good Enough to be Your Baby's Mother and She's Good Enough to Vote with You
TTITLE4=Smith, Mamie and Her Jazz Hounds - Crazy Blues
TTITLE5=Harris, Marion - I'm a Jazz Vampire
TTITLE6=Brice, Fannie - My Man (Mon Homme)
TTITLE7=Stanley, Roba - Devilish Mary
TTITLE8=Anderson, Marian - Nobody Knows the Trouble I've Seen
TTITLE9=Rainey, Ma - See See Rider Blues
TTITLE10=Hunter, Alberta - Beale Street Blues
TTITLE11=Carter Family, The - Single Girl, Married Girl
TTITLE12=Kane, Helen - I Wanna Be Loved by You
TTITLE13=Crawford, Joan and The MGM Studio Chorus - Gotta Feelin' for You
TTITLE14=Etting, Ruth - Love Me or Leave Me
TTITLE15=Smith, Bessie - Nobody Knows You When You're Down and Out
TTITLE16=Waters, Ethel - Am I Blue?
TTITLE17=Hood,Adelyne&  Vernon Dalhart - Calamity Jane (from The West)
TTITLE18=Aunt Molly Jackson - Kentucky Miner's Wife (Ragged Hungry Blues)
TTITLE19=The Girls Of The Golden West - Bucking Broncho (My Love Is a Rider)
TTITLE20=Smith, Kate - When the Moon Comes over the Mountain
TTITLE21=West, Mae - I Like a Guy What Takes His Time
TTITLE22=Merman, Ethel - You're the Top
EXTD=YEAR: 1999
EXTT0=
EXTT1=
EXTT2=
EXTT3=
EXTT4=
EXTT5=
EXTT6=
EXTT7=
EXTT8=
EXTT9=
EXTT10=
EXTT11=
EXTT12=
EXTT13=
EXTT14=
EXTT15=
EXTT16=
EXTT17=
EXTT18=
EXTT19=
EXTT20=
EXTT21=
EXTT22=
PLAYORDER=
